<svg width="289" height="109" viewBox="0 0 289 109" version="1.1" xmlns="http://www.w3.org/2000/svg" xmlns:xlink="http://www.w3.org/1999/xlink">
<title>Page 1</title>
<desc>Created using Figma</desc>
<g id="Canvas" transform="translate(-7884 -9802)">
<g id="Welcome to Quiz!" filter="url(#filter0_d)">
<use xlink:href="#path0_fill" transform="translate(7901 9797)" fill="#FFFFFF"/>
<use xlink:href="#path1_fill" transform="translate(7901 9797)" fill="#EDEDED"/>
</g>
<g id="logo">
<g id="Vector" filter="url(#filter1_d)">
<use xlink:href="#path2_fill" transform="translate(7896 9858)" fill="url(#paint2_linear)"/>
</g>
</g>
</g>
<defs>
<filter id="filter0_d" filterUnits="userSpaceOnUse" x="7940" y="9802" width="233" height="102" color-interpolation-filters="sRGB">
<feFlood flood-opacity="0" result="BackgroundImageFix"/>
<feColorMatrix in="SourceAlpha" type="matrix" values="0 0 0 0 0 0 0 0 0 0 0 0 0 0 0 0 0 0 255 0"/>
<feOffset dx="0" dy="0"/>
<feGaussianBlur stdDeviation="2"/>
<feColorMatrix type="matrix" values="0 0 0 0 0 0 0 0 0 0 0 0 0 0 0 0 0 0 0.25 0"/>
<feBlend mode="normal" in2="BackgroundImageFix" result="effect1_dropShadow"/>
<feBlend mode="normal" in="SourceGraphic" in2="effect1_dropShadow" result="shape"/>
</filter>
<filter id="filter1_d" filterUnits="userSpaceOnUse" x="7884" y="9848" width="169" height="63" color-interpolation-filters="sRGB">
<feFlood flood-opacity="0" result="BackgroundImageFix"/>
<feColorMatrix in="SourceAlpha" type="matrix" values="0 0 0 0 0 0 0 0 0 0 0 0 0 0 0 0 0 0 255 0"/>
<feOffset dx="0" dy="2"/>
<feGaussianBlur stdDeviation="6"/>
<feColorMatrix type="matrix" values="0 0 0 0 0 0 0 0 0 0 0 0 0 0 0 0 0 0 0.15 0"/>
<feBlend mode="normal" in2="BackgroundImageFix" result="effect1_dropShadow"/>
<feBlend mode="normal" in="SourceGraphic" in2="effect1_dropShadow" result="shape"/>
</filter>
<linearGradient id="paint2_linear" x1="0" y1="0" x2="1" y2="0" gradientUnits="userSpaceOnUse" gradientTransform="matrix(8.87869e-15 39 -145 2.38806e-15 145 -2.38806e-15)">
<stop offset="0" stop-color="#F2BB5E"/>
<stop offset="1" stop-color="#EBB04E"/>
</linearGradient>
<path id="path0_fill" d="M 185.789 80.1953C 185.789 83.1641 185.25 85.875 184.172 88.3281C 183.109 90.7812 181.617 92.7812 179.695 94.3281L 186.961 98.8516L 182.133 102.578L 173.953 97.0703C 173.344 97.1953 172.727 97.2969 172.102 97.375C 171.492 97.4531 170.883 97.4922 170.273 97.4922C 165.664 97.4922 161.938 95.8594 159.094 92.5938C 156.266 89.3281 154.852 85.1953 154.852 80.1953L 154.852 79.6797C 154.852 74.7109 156.266 70.5859 159.094 67.3047C 161.922 64.0234 165.641 62.3828 170.25 62.3828C 174.875 62.3828 178.617 64.0234 181.477 67.3047C 184.352 70.5859 185.789 74.7109 185.789 79.6797L 185.789 80.1953ZM 178.969 79.6328C 178.969 76.1016 178.234 73.2344 176.766 71.0312C 175.297 68.8281 173.125 67.7266 170.25 67.7266C 167.375 67.7266 165.227 68.8203 163.805 71.0078C 162.398 73.1953 161.695 76.0703 161.695 79.6328L 161.695 80.1953C 161.695 83.7891 162.406 86.6875 163.828 88.8906C 165.266 91.0781 167.414 92.1719 170.273 92.1719C 173.164 92.1719 175.336 91.0781 176.789 88.8906C 178.242 86.6875 178.969 83.7891 178.969 80.1953L 178.969 79.6328ZM 206.484 93.7891C 205.672 94.9766 204.664 95.8906 203.461 96.5312C 202.273 97.1719 200.914 97.4922 199.383 97.4922C 196.711 97.4922 194.617 96.6406 193.102 94.9375C 191.586 93.2188 190.828 90.5547 190.828 86.9453L 190.828 76.4688L 188.039 75.7656L 188.039 71.6406L 190.828 71.6406L 197.672 71.6406L 197.672 86.9922C 197.672 88.8359 197.977 90.1641 198.586 90.9766C 199.211 91.7734 200.133 92.1719 201.352 92.1719C 202.43 92.1719 203.359 92 204.141 91.6562C 204.938 91.2969 205.586 90.7891 206.086 90.1328L 206.086 76.4688L 203.086 75.7656L 203.086 71.6406L 206.086 71.6406L 212.93 71.6406L 212.93 92.1953L 216 92.8984L 216 97L 206.93 97L 206.484 93.7891ZM 218.484 92.8984L 221.789 92.1953L 221.789 76.4688L 218.133 75.7656L 218.133 71.6406L 228.633 71.6406L 228.633 92.1953L 231.914 92.8984L 231.914 97L 218.484 97L 218.484 92.8984ZM 228.633 65.5703L 221.789 65.5703L 221.789 60.4375L 228.633 60.4375L 228.633 65.5703ZM 243.234 91.75L 250.312 91.75L 250.594 88.375L 255.82 88.375L 255.82 97L 234.75 97L 234.75 92.9688L 246.82 76.9375L 240.609 76.9375L 240.352 80.2891L 235.102 80.2891L 235.102 71.6406L 255.398 71.6406L 255.398 75.5547L 243.234 91.75ZM 267.398 85.2344L 260.555 85.2344L 260.555 62.875L 267.398 62.875L 267.398 85.2344ZM 267.398 97L 260.555 97L 260.555 91L 267.398 91L 267.398 97Z"/>
<path id="path1_fill" d="M 50.3906 13.2344L 48.0781 13.5938L 51 26.125L 51.4219 28.9688L 51.5156 28.9844L 52.125 26.125L 56.3125 11.25L 59.0312 11.25L 63.2344 26.125L 63.8594 29.0469L 63.9531 29.0469L 64.4062 26.125L 67.2656 13.5938L 64.9375 13.2344L 64.9375 11.25L 72.1719 11.25L 72.1719 13.2344L 70.3438 13.4688L 65.3906 34L 62.6406 34L 58.1406 18.2188L 57.7344 16.1719L 57.6406 16.1719L 57.25 18.2188L 52.6875 34L 49.9531 34L 45 13.4688L 43.1719 13.2344L 43.1719 11.25L 50.3906 11.25L 50.3906 13.2344ZM 81.2031 34.3281C 78.849 34.3281 76.974 33.5469 75.5781 31.9844C 74.1927 30.4115 73.5 28.375 73.5 25.875L 73.5 25.1875C 73.5 22.7812 74.2135 20.7812 75.6406 19.1875C 77.0781 17.5833 78.776 16.7812 80.7344 16.7812C 83.0052 16.7812 84.724 17.4688 85.8906 18.8438C 87.0677 20.2188 87.6562 22.0521 87.6562 24.3438L 87.6562 26.2656L 76.6875 26.2656L 76.6406 26.3438C 76.6719 27.9688 77.0833 29.3073 77.875 30.3594C 78.6667 31.401 79.776 31.9219 81.2031 31.9219C 82.2448 31.9219 83.1562 31.776 83.9375 31.4844C 84.7292 31.1823 85.4115 30.7708 85.9844 30.25L 87.1875 32.25C 86.5833 32.8333 85.7812 33.3281 84.7812 33.7344C 83.7917 34.1302 82.599 34.3281 81.2031 34.3281ZM 80.7344 19.2031C 79.7031 19.2031 78.8229 19.6406 78.0938 20.5156C 77.3646 21.3802 76.9167 22.4688 76.75 23.7812L 76.7812 23.8594L 84.5781 23.8594L 84.5781 23.4531C 84.5781 22.2448 84.2552 21.2344 83.6094 20.4219C 82.9635 19.6094 82.0052 19.2031 80.7344 19.2031ZM 90.2812 11.6094L 90.2812 9.625L 95.9062 9.625L 95.9062 31.5938L 98.4531 32.0312L 98.4531 34L 90.2812 34L 90.2812 32.0312L 92.8281 31.5938L 92.8281 12.0469L 90.2812 11.6094ZM 108.391 31.9219C 109.411 31.9219 110.307 31.6094 111.078 30.9844C 111.859 30.349 112.25 29.5729 112.25 28.6562L 115.016 28.6562L 115.047 28.75C 115.099 30.2083 114.448 31.5052 113.094 32.6406C 111.75 33.7656 110.182 34.3281 108.391 34.3281C 105.932 34.3281 104.052 33.526 102.75 31.9219C 101.458 30.3177 100.812 28.3021 100.812 25.875L 100.812 25.2188C 100.812 22.8125 101.464 20.8073 102.766 19.2031C 104.068 17.5885 105.943 16.7812 108.391 16.7812C 109.745 16.7812 110.958 17.0052 112.031 17.4531C 113.115 17.901 114.01 18.5156 114.719 19.2969L 114.859 23.0469L 112.406 23.0469L 111.734 20.3906C 111.37 20.0365 110.901 19.75 110.328 19.5312C 109.755 19.3125 109.109 19.2031 108.391 19.2031C 106.776 19.2031 105.62 19.7865 104.922 20.9531C 104.234 22.1094 103.891 23.5312 103.891 25.2188L 103.891 25.875C 103.891 27.6042 104.234 29.0469 104.922 30.2031C 105.609 31.349 106.766 31.9219 108.391 31.9219ZM 118.062 25.3906C 118.062 22.8906 118.74 20.8333 120.094 19.2188C 121.448 17.5938 123.286 16.7812 125.609 16.7812C 127.943 16.7812 129.786 17.5885 131.141 19.2031C 132.505 20.8177 133.188 22.8802 133.188 25.3906L 133.188 25.7344C 133.188 28.2552 132.51 30.3177 131.156 31.9219C 129.802 33.526 127.964 34.3281 125.641 34.3281C 123.297 34.3281 121.448 33.526 120.094 31.9219C 118.74 30.3073 118.062 28.2448 118.062 25.7344L 118.062 25.3906ZM 121.141 25.7344C 121.141 27.526 121.516 29.0052 122.266 30.1719C 123.026 31.3385 124.151 31.9219 125.641 31.9219C 127.099 31.9219 128.208 31.3385 128.969 30.1719C 129.729 29.0052 130.109 27.526 130.109 25.7344L 130.109 25.3906C 130.109 23.6198 129.729 22.1458 128.969 20.9688C 128.208 19.7917 127.089 19.2031 125.609 19.2031C 124.13 19.2031 123.016 19.7917 122.266 20.9688C 121.516 22.1458 121.141 23.6198 121.141 25.3906L 121.141 25.7344ZM 135.406 32.0312L 137.953 31.5938L 137.953 19.5156L 135.406 19.0781L 135.406 17.0938L 140.719 17.0938L 140.922 19.2969C 141.464 18.4948 142.161 17.875 143.016 17.4375C 143.87 17 144.859 16.7812 145.984 16.7812C 147.109 16.7812 148.073 17.0417 148.875 17.5625C 149.688 18.0833 150.297 18.8646 150.703 19.9062C 151.234 18.9479 151.938 18.1875 152.812 17.625C 153.688 17.0625 154.708 16.7812 155.875 16.7812C 157.604 16.7812 158.969 17.375 159.969 18.5625C 160.969 19.7396 161.469 21.5156 161.469 23.8906L 161.469 31.5938L 164.016 32.0312L 164.016 34L 155.828 34L 155.828 32.0312L 158.375 31.5938L 158.375 23.8594C 158.375 22.1927 158.089 21.0156 157.516 20.3281C 156.943 19.6302 156.094 19.2812 154.969 19.2812C 153.896 19.2812 153.031 19.6615 152.375 20.4219C 151.729 21.1719 151.354 22.1198 151.25 23.2656L 151.25 31.5938L 153.797 32.0312L 153.797 34L 145.625 34L 145.625 32.0312L 148.172 31.5938L 148.172 23.8594C 148.172 22.276 147.875 21.1198 147.281 20.3906C 146.698 19.651 145.849 19.2812 144.734 19.2812C 143.797 19.2812 143.026 19.474 142.422 19.8594C 141.818 20.2448 141.354 20.7865 141.031 21.4844L 141.031 31.5938L 143.578 32.0312L 143.578 34L 135.406 34L 135.406 32.0312ZM 173.828 34.3281C 171.474 34.3281 169.599 33.5469 168.203 31.9844C 166.818 30.4115 166.125 28.375 166.125 25.875L 166.125 25.1875C 166.125 22.7812 166.839 20.7812 168.266 19.1875C 169.703 17.5833 171.401 16.7812 173.359 16.7812C 175.63 16.7812 177.349 17.4688 178.516 18.8438C 179.693 20.2188 180.281 22.0521 180.281 24.3438L 180.281 26.2656L 169.312 26.2656L 169.266 26.3438C 169.297 27.9688 169.708 29.3073 170.5 30.3594C 171.292 31.401 172.401 31.9219 173.828 31.9219C 174.87 31.9219 175.781 31.776 176.562 31.4844C 177.354 31.1823 178.036 30.7708 178.609 30.25L 179.812 32.25C 179.208 32.8333 178.406 33.3281 177.406 33.7344C 176.417 34.1302 175.224 34.3281 173.828 34.3281ZM 173.359 19.2031C 172.328 19.2031 171.448 19.6406 170.719 20.5156C 169.99 21.3802 169.542 22.4688 169.375 23.7812L 169.406 23.8594L 177.203 23.8594L 177.203 23.4531C 177.203 22.2448 176.88 21.2344 176.234 20.4219C 175.589 19.6094 174.63 19.2031 173.359 19.2031ZM 196.672 13.0156L 196.672 17.0938L 199.875 17.0938L 199.875 19.375L 196.672 19.375L 196.672 29.6406C 196.672 30.4323 196.833 30.9896 197.156 31.3125C 197.49 31.6354 197.927 31.7969 198.469 31.7969C 198.74 31.7969 199.042 31.776 199.375 31.7344C 199.719 31.6823 200.005 31.6302 200.234 31.5781L 200.656 33.6875C 200.365 33.875 199.938 34.026 199.375 34.1406C 198.812 34.2656 198.25 34.3281 197.688 34.3281C 196.438 34.3281 195.443 33.9531 194.703 33.2031C 193.964 32.4427 193.594 31.2552 193.594 29.6406L 193.594 19.375L 190.922 19.375L 190.922 17.0938L 193.594 17.0938L 193.594 13.0156L 196.672 13.0156ZM 202.719 25.3906C 202.719 22.8906 203.396 20.8333 204.75 19.2188C 206.104 17.5938 207.943 16.7812 210.266 16.7812C 212.599 16.7812 214.443 17.5885 215.797 19.2031C 217.161 20.8177 217.844 22.8802 217.844 25.3906L 217.844 25.7344C 217.844 28.2552 217.167 30.3177 215.812 31.9219C 214.458 33.526 212.62 34.3281 210.297 34.3281C 207.953 34.3281 206.104 33.526 204.75 31.9219C 203.396 30.3073 202.719 28.2448 202.719 25.7344L 202.719 25.3906ZM 205.797 25.7344C 205.797 27.526 206.172 29.0052 206.922 30.1719C 207.682 31.3385 208.807 31.9219 210.297 31.9219C 211.755 31.9219 212.865 31.3385 213.625 30.1719C 214.385 29.0052 214.766 27.526 214.766 25.7344L 214.766 25.3906C 214.766 23.6198 214.385 22.1458 213.625 20.9688C 212.865 19.7917 211.745 19.2031 210.266 19.2031C 208.786 19.2031 207.672 19.7917 206.922 20.9688C 206.172 22.1458 205.797 23.6198 205.797 25.3906L 205.797 25.7344Z"/>
<path id="path2_fill" d="M 18.7963 29.6111C 13.7086 29.6111 9.61014 24.9889 9.61014 19.3556C 9.61014 13.7222 13.7086 9.1 18.7963 9.1C 21.1988 9.1 23.46 10.2556 25.1559 11.9889L 31.6569 5.48889C 28.1238 2.16667 23.6014 0 18.5136 0C 8.33821 0 0 8.66667 0 19.5C 0 30.1889 8.33821 39 18.5136 39C 23.6014 39 28.2651 36.8333 31.5156 33.3667L 25.0146 26.8667C 23.46 28.6 21.1988 29.6111 18.7963 29.6111ZM 45.5068 0.866667L 27.5585 18.7778L 26.9932 19.3556L 45.5068 37.9889L 51.8665 31.6333L 39.2885 19.5L 51.8665 7.22222L 45.5068 0.866667ZM 95.1121 1.3L 82.9581 1.3L 82.9581 37.5556L 95.2534 37.5556C 106.418 37.5556 114.474 30.6222 114.474 19.5C 114.474 8.23333 106.418 1.3 95.1121 1.3ZM 95.1121 29.4667L 92.1442 29.4667L 92.1442 9.53333L 95.1121 9.53333C 101.613 9.53333 105.005 13.8667 105.005 19.5C 105.005 24.8444 101.33 29.4667 95.1121 29.4667ZM 145 9.53333L 145 1.3L 118.713 1.3L 118.713 37.5556L 145 37.5556L 145 29.4667L 127.9 29.4667L 127.9 23.2556L 144.576 23.2556L 144.576 15.1667L 127.9 15.1667L 127.9 9.53333L 145 9.53333ZM 60.4873 0.866667L 54.1277 7.22222L 66.7057 19.5L 54.1277 31.6333L 60.4873 37.9889L 79.001 19.3556L 78.4357 18.7778L 60.4873 0.866667Z"/>
</defs>
</svg>
